<?xml version="1.0" encoding="UTF-8"?>
<svg version="1.1" xmlns="http://www.w3.org/2000/svg" width="128" height="128">
<path d="M0 0 C42.24 0 84.48 0 128 0 C128 42.24 128 84.48 128 128 C85.76 128 43.52 128 0 128 C0 85.76 0 43.52 0 0 Z " fill="#0E0A23" transform="translate(0,0)"/>
<path d="M0 0 C42.24 0 84.48 0 128 0 C128 42.24 128 84.48 128 128 C85.76 128 43.52 128 0 128 C0 85.76 0 43.52 0 0 Z M48 16 C48 16.99 48 17.98 48 19 C47.01 19 46.02 19 45 19 C45 23.29 45 27.58 45 32 C36.42 32 27.84 32 19 32 C19 32.99 19 33.98 19 35 C18.01 35 17.02 35 16 35 C16 35.99 16 36.98 16 38 C15.01 38 14.02 38 13 38 C13 61.43 13 84.86 13 109 C13.99 109 14.98 109 16 109 C16 109.99 16 110.98 16 112 C16.99 112 17.98 112 19 112 C19 112.99 19 113.98 19 115 C48.7 115 78.4 115 109 115 C109 114.01 109 113.02 109 112 C109.99 112 110.98 112 112 112 C112 111.01 112 110.02 112 109 C112.99 109 113.98 109 115 109 C115 85.9 115 62.8 115 39 C114.34 38.67 113.68 38.34 113 38 C112.505 36.515 112.505 36.515 112 35 C111.01 35 110.02 35 109 35 C109 34.01 109 33.02 109 32 C100.42 32 91.84 32 83 32 C83 27.71 83 23.42 83 19 C82.01 19 81.02 19 80 19 C80 18.01 80 17.02 80 16 C69.44 16 58.88 16 48 16 Z " fill="#231C6B" transform="translate(0,0)"/>
<path d="M0 0 C25.41 0 50.82 0 77 0 C77 42.24 77 84.48 77 128 C65.12 128 53.24 128 41 128 C41.33 127.34 41.66 126.68 42 126 C44.5625 125.375 44.5625 125.375 47 125 C47 122.36 47 119.72 47 117 C46.01 116.67 45.02 116.34 44 116 C47.14930893 114.95023036 49.38814456 114.89868405 52.6875 114.9375 C53.68136719 114.94652344 54.67523438 114.95554687 55.69921875 114.96484375 C56.45847656 114.97644531 57.21773437 114.98804687 58 115 C58 114.01 58 113.02 58 112 C58.99 112 59.98 112 61 112 C61 111.01 61 110.02 61 109 C61.99 109 62.98 109 64 109 C64 85.9 64 62.8 64 39 C62.515 38.505 62.515 38.505 61 38 C61 37.01 61 36.02 61 35 C60.01 35 59.02 35 58 35 C58 34.01 58 33.02 58 32 C49.42 32 40.84 32 32 32 C32 27.71 32 23.42 32 19 C31.01 19 30.02 19 29 19 C29 18.01 29 17.02 29 16 C19.76 16 10.52 16 1 16 C1.66 15.67 2.32 15.34 3 15 C4.10135489 11.71307604 4.10135489 11.71307604 4 8 C1.70800597 5.03949126 1.70800597 5.03949126 -1 3 C-0.67 2.01 -0.34 1.02 0 0 Z " fill="#47137E" transform="translate(51,0)"/>
<path d="M0 0 C17.16 0 34.32 0 52 0 C54 12 54 12 53 14 C52.92896825 17.54270847 53.00333083 21.07443327 53.0625 24.6171875 C53 28 53 28 52 32 C45.4 32 38.8 32 32 32 C32 27.71 32 23.42 32 19 C31.01 19 30.02 19 29 19 C29 18.01 29 17.02 29 16 C19.76 16 10.52 16 1 16 C1.66 15.67 2.32 15.34 3 15 C4.10135489 11.71307604 4.10135489 11.71307604 4 8 C1.70800597 5.03949126 1.70800597 5.03949126 -1 3 C-0.67 2.01 -0.34 1.02 0 0 Z " fill="#371777" transform="translate(51,0)"/>
<path d="M0 0 C0.495 5.445 0.495 5.445 1 11 C0.030625 11.144375 -0.93875 11.28875 -1.9375 11.4375 C-4.86486773 11.67562341 -4.86486773 11.67562341 -6 13 C-8.11681317 13.0942174 -10.23680758 13.11742761 -12.35571289 13.11352539 C-13.01910172 13.11367142 -13.68249054 13.11381744 -14.36598206 13.1139679 C-16.56823956 13.11326881 -18.77041345 13.10547665 -20.97265625 13.09765625 C-22.49580336 13.09579206 -24.01895107 13.09436816 -25.542099 13.09336853 C-29.55837651 13.08954346 -33.57461808 13.07971328 -37.59088135 13.06866455 C-41.68623366 13.05845019 -45.78159176 13.05387086 -49.87695312 13.04882812 C-57.91798528 13.038091 -65.95898817 13.02101472 -74 13 C-72.29749679 9.17917482 -70.6499306 8.04752204 -67 6 C-65.98198643 5.01834406 -64.9753197 4.02408568 -64 3 C-63.67 3 -63.34 3 -63 3 C-63 2.34 -63 1.68 -63 1 C-41.99405012 0.35376885 -21.01836129 -0.16844635 0 0 Z " fill="#351774" transform="translate(98,115)"/>
<path d="M0 0 C1.98 0 3.96 0 6 0 C6 0.66 6 1.32 6 2 C6.66 2 7.32 2 8 2 C8.33 3.98 8.66 5.96 9 8 C9.66 8 10.32 8 11 8 C11.50757862 9.41396902 12.00574925 10.83131729 12.5 12.25 C12.7784375 13.03890625 13.056875 13.8278125 13.34375 14.640625 C14 17 14 17 14 21 C14.66 21 15.32 21 16 21 C16.33 23.31 16.66 25.62 17 28 C17.66 28 18.32 28 19 28 C19 29.32 19 30.64 19 32 C19.66 32 20.32 32 21 32 C21 33.32 21 34.64 21 36 C18.69 36 16.38 36 14 36 C14 35.01 14 34.02 14 33 C13.34 33 12.68 33 12 33 C11.67 30.69 11.34 28.38 11 26 C5.72 26 0.44 26 -5 26 C-5 26.99 -5 27.98 -5 29 C-5.66 29 -6.32 29 -7 29 C-7.33 31.31 -7.66 33.62 -8 36 C-10.31 36 -12.62 36 -15 36 C-15 34.68 -15 33.36 -15 32 C-14.34 32 -13.68 32 -13 32 C-12.505 27.545 -12.505 27.545 -12 23 C-11.34 23 -10.68 23 -10 23 C-10 22.34 -10 21.68 -10 21 C-9.34 21 -8.68 21 -8 21 C-7.67 18.36 -7.34 15.72 -7 13 C-6.34 13 -5.68 13 -5 13 C-4.67 10.36 -4.34 7.72 -4 5 C-3.34 5 -2.68 5 -2 5 C-2 4.01 -2 3.02 -2 2 C-1.34 2 -0.68 2 0 2 C0 1.34 0 0.68 0 0 Z " fill="#EFEFF0" transform="translate(50,54)"/>
<path d="M0 0 C8.58 0 17.16 0 26 0 C26 2.31 26 4.62 26 7 C22.7 7 19.4 7 16 7 C16 16.24 16 25.48 16 35 C14.02 35 12.04 35 10 35 C10 25.76 10 16.52 10 7 C6.7 7 3.4 7 0 7 C0 4.69 0 2.38 0 0 Z " fill="#F1F1F2" transform="translate(67,54)"/>
<path d="M0 0 C0.80695313 -0.01546875 1.61390625 -0.0309375 2.4453125 -0.046875 C6.18100354 -0.02221697 8.37734677 0.0975534 11.5625 2.15625 C13 4.5 13 4.5 13 10.5 C4.42 10.5 -4.16 10.5 -13 10.5 C-13 4.5 -13 4.5 -11.5625 2.15625 C-7.77132075 -0.29414635 -4.4215931 -0.08475897 0 0 Z " fill="#311871" transform="translate(64,21.5)"/>
<path d="M0 0 C0.99 0 1.98 0 3 0 C3 0.99 3 1.98 3 3 C3.66 3 4.32 3 5 3 C5 3.99 5 4.98 5 6 C5.66 6 6.32 6 7 6 C7 7.32 7 8.64 7 10 C3.7 10 0.4 10 -3 10 C-2.67 7.69 -2.34 5.38 -2 3 C-1.34 3 -0.68 3 0 3 C0 2.01 0 1.02 0 0 Z " fill="#2C293E" transform="translate(51,64)"/>
<path d="M0 0 C1.98 0.66 3.96 1.32 6 2 C5.79375 2.61875 5.5875 3.2375 5.375 3.875 C5.25125 4.57625 5.1275 5.2775 5 6 C5.66 6.66 6.32 7.32 7 8 C6.01 8 5.02 8 4 8 C4 8.66 4 9.32 4 10 C2.865625 10.12375 1.73125 10.2475 0.5625 10.375 C-1.2009375 10.684375 -1.2009375 10.684375 -3 11 C-3.33 11.66 -3.66 12.32 -4 13 C-4.625 11.125 -4.625 11.125 -5 9 C-4.34 8.34 -3.68 7.68 -3 7 C-3 7.66 -3 8.32 -3 9 C-2.34 9 -1.68 9 -1 9 C0.10540926 6.21081851 0.10540926 6.21081851 0 4 C0 2.68 0 1.36 0 0 Z " fill="#2E1B72" transform="translate(50,5)"/>
</svg>
