<?xml version="1.0" encoding="UTF-8"?>
<svg version="1.1" xmlns="http://www.w3.org/2000/svg" width="512" height="512">
<path d="M0 0 C168.96 0 337.92 0 512 0 C512 168.96 512 337.92 512 512 C343.04 512 174.08 512 0 512 C0 343.04 0 174.08 0 0 Z " fill="#0E0922" transform="translate(0,0)"/>
<path d="M0 0 C168.96 0 337.92 0 512 0 C512 168.96 512 337.92 512 512 C343.04 512 174.08 512 0 512 C0 343.04 0 174.08 0 0 Z M192 64 C191.67 67.96 191.34 71.92 191 76 C185.06 76.495 185.06 76.495 179 77 C179 93.83 179 110.66 179 128 C145.34 128 111.68 128 77 128 C76.67 131.96 76.34 135.92 76 140 C70.06 140.495 70.06 140.495 64 141 C63.67 144.96 63.34 148.92 63 153 C61.205625 152.979375 59.41125 152.95875 57.5625 152.9375 C55.70833878 152.9161878 53.85287502 152.92773498 52 153 C50.78771775 153.99223651 50.78771775 153.99223651 50.8758015 155.92597872 C50.87618122 156.7792103 50.87656094 157.63244188 50.87695217 158.51152897 C50.87496112 159.49235417 50.87297007 160.47317938 50.87091869 161.48372656 C50.87383153 162.57417019 50.87674437 163.66461382 50.87974548 164.7881012 C50.87889106 165.93643383 50.87803663 167.08476647 50.87715632 168.26789707 C50.87578818 171.46949485 50.87893548 174.67105269 50.88393438 177.87264574 C50.88823571 181.31983148 50.88679268 184.76701521 50.8860321 188.21420288 C50.88550667 194.19140125 50.88865553 200.16858874 50.89426994 206.14578438 C50.90238227 214.78790326 50.90499989 223.43001686 50.90625793 232.07213914 C50.90844888 246.09195968 50.9151101 260.11177441 50.92456055 274.1315918 C50.93373358 287.75398733 50.94081494 301.3763813 50.94506836 314.9987793 C50.94533108 315.83786233 50.94559381 316.67694536 50.94586449 317.54145516 C50.94716949 321.75070854 50.94843321 325.95996192 50.94967639 330.16921532 C50.96005032 365.11281439 50.97774389 400.05640657 51 435 C54.96 435.33 58.92 435.66 63 436 C63.33 439.96 63.66 443.92 64 448 C67.96 448.33 71.92 448.66 76 449 C76.33 452.96 76.66 456.92 77 461 C195.14 461 313.28 461 435 461 C435 456.71 435 452.42 435 448 C439.29 448 443.58 448 448 448 C448 443.71 448 439.42 448 435 C452.29 435 456.58 435 461 435 C461 342.27 461 249.54 461 154 C455.06 153.505 455.06 153.505 449 153 C448.67 149.04 448.34 145.08 448 141 C442.06 140.505 442.06 140.505 436 140 C435.67 136.04 435.34 132.08 435 128 C401.34 128 367.68 128 333 128 C333 111.17 333 94.34 333 77 C327.06 76.505 327.06 76.505 321 76 C320.67 72.04 320.34 68.08 320 64 C277.76 64 235.52 64 192 64 Z " fill="#251C6D" transform="translate(0,0)"/>
<path d="M0 0 C71.28 0 142.56 0 216 0 C216 168.96 216 337.92 216 512 C135.48 512 54.96 512 -28 512 C-28 508.14681652 -27.814709 504.76802913 -27 501 C-24.37886292 501 -22.49064888 501.31292445 -20 502 C-19.67 501.34 -19.34 500.68 -19 500 C-18.67 500.33 -18.34 500.66 -18 501 C-18 499.02 -18 497.04 -18 495 C-18.28875 495.61875 -18.5775 496.2375 -18.875 496.875 C-20 499 -20 499 -22 501 C-22.495 499.02 -22.495 499.02 -23 497 C-23.66 497 -24.32 497 -25 497 C-25 497.66 -25 498.32 -25 499 C-25.66 498.67 -26.32 498.34 -27 498 C-27 496.35 -27 494.7 -27 493 C-27.33 493.33 -27.66 493.66 -28 494 C-28.99 494.33 -29.98 494.66 -31 495 C-33.5 492.6875 -33.5 492.6875 -36 490 C-36 487 -36 487 -34.25 484.75 C-32 483 -32 483 -29.75 483.25 C-28.88375 483.62125 -28.88375 483.62125 -28 484 C-28.5878125 482.4221875 -28.5878125 482.4221875 -29.1875 480.8125 C-30 477 -30 477 -28.625 474.0625 C-28.08875 473.381875 -27.5525 472.70125 -27 472 C-28.32 471.67 -29.64 471.34 -31 471 C-31.33 472.65 -31.66 474.3 -32 476 C-35 476 -35 476 -37 475 C-37.4021875 476.2065625 -37.4021875 476.2065625 -37.8125 477.4375 C-38.204375 478.283125 -38.59625 479.12875 -39 480 C-39.99 480.33 -40.98 480.66 -42 481 C-42 480.01 -42 479.02 -42 478 C-42.33 478 -42.66 478 -43 478 C-43.99 478 -44.98 478 -46 478 C-45.484375 477.401875 -44.96875 476.80375 -44.4375 476.1875 C-43.963125 475.465625 -43.48875 474.74375 -43 474 C-43.495 472.515 -43.495 472.515 -44 471 C-44.99 471.66 -45.98 472.32 -47 473 C-47 469.88772805 -46.54372951 467.05847848 -46 464 C-45.195625 463.87625 -44.39125 463.7525 -43.5625 463.625 C-42.716875 463.41875 -41.87125 463.2125 -41 463 C-40.67 462.34 -40.34 461.68 -40 461 C19.07 461 78.14 461 139 461 C139 456.71 139 452.42 139 448 C143.29 448 147.58 448 152 448 C152 443.71 152 439.42 152 435 C156.29 435 160.58 435 165 435 C165 342.27 165 249.54 165 154 C161.04 154 157.08 154 153 154 C152 153 152 153 151.90234375 150.27734375 C151.91974609 148.62412109 151.91974609 148.62412109 151.9375 146.9375 C151.94652344 145.83277344 151.95554687 144.72804687 151.96484375 143.58984375 C151.98224609 142.30787109 151.98224609 142.30787109 152 141 C151.14535156 141.01160156 150.29070312 141.02320313 149.41015625 141.03515625 C148.30542969 141.04417969 147.20070313 141.05320313 146.0625 141.0625 C144.96035156 141.07410156 143.85820312 141.08570313 142.72265625 141.09765625 C140 141 140 141 139 140 C139 136.04 139 132.08 139 128 C105.34 128 71.68 128 37 128 C37 110.84 37 93.68 37 76 C34.36 76 31.72 76 29 76 C28.34 74.02 27.68 72.04 27 70 C27.66 69.67 28.32 69.34 29 69 C28.67 68.01 28.34 67.02 28 66 C26.515 65.505 26.515 65.505 25 65 C25 64.34 25 63.68 25 63 C20.71 63 16.42 63 12 63 C12 62.34 12 61.68 12 61 C9.525 61.495 9.525 61.495 7 62 C7 61.01 7 60.02 7 59 C6.01 59 5.02 59 4 59 C3.505 59.99 3.505 59.99 3 61 C0.08482708 59.92598892 -1.77810176 59.22189824 -4 57 C-4.66 57.66 -5.32 58.32 -6 59 C-6.33 57.35 -6.66 55.7 -7 54 C-6.360625 53.5875 -5.72125 53.175 -5.0625 52.75 C-2.67393952 50.72334262 -2.51503817 50.00438933 -2 47 C-1.62875 46.071875 -1.2575 45.14375 -0.875 44.1875 C0.30817135 39.87737579 0.01456789 36.02913578 -2 32 C-1.34 31.67 -0.68 31.34 0 31 C-0.350625 29.948125 -0.70125 28.89625 -1.0625 27.8125 C-1.97260551 24.11140428 -1.89133155 22.56532621 -1 19 C-1.495 17.515 -1.495 17.515 -2 16 C-1.5625 13.3125 -1.5625 13.3125 -1 11 C-1.99 11.33 -2.98 11.66 -4 12 C-2.96650544 9.93301088 -1.931932 7.86764555 -0.875 5.8125 C0.07245818 4.18535061 0.07245818 4.18535061 0 3 C0 2.01 0 1.02 0 0 Z M-26 476 C-26.99 476.495 -26.99 476.495 -28 477 C-27.67 477.66 -27.34 478.32 -27 479 C-26.34 478.67 -25.68 478.34 -25 478 C-25.33 477.34 -25.66 476.68 -26 476 Z M-26 479 C-25 481 -25 481 -25 481 Z " fill="#46137E" transform="translate(296,0)"/>
<path d="M0 0 C36.96 0 73.92 0 112 0 C112.495 1.485 112.495 1.485 113 3 C112.01 3 111.02 3 110 3 C110.474375 3.391875 110.94875 3.78375 111.4375 4.1875 C113.4014177 6.46564453 113.77642248 8.01896641 114 11 C112 14 112 14 109 14.9375 C105.91059829 15.68142373 105.91059829 15.68142373 104.75 18 C104.37875 18.99 104.37875 18.99 104 20 C103.34 20.66 102.68 21.32 102 22 C103.66924071 25.04134491 103.66924071 25.04134491 106 26 C108.27521866 23.83312509 110.15794162 21.54379491 112 19 C112 19.66 112 20.32 112 21 C112.66 21.33 113.32 21.66 114 22 C114 23.32 114 24.64 114 26 C114.165 27.155 114.33 28.31 114.5 29.5 C115 33 115 33 115 37 C115.30404678 38.67225729 115.63128912 40.34080104 116 42 C115.01 42.495 115.01 42.495 114 43 C112.7763932 45.0745356 112.7763932 45.0745356 113 48 C112.67 48.99 112.34 49.98 112 51 C111.443125 50.731875 110.88625 50.46375 110.3125 50.1875 C109.1678125 50.0946875 109.1678125 50.0946875 108 50 C105.22877725 52.35426499 105.22877725 52.35426499 103 55 C103.66 55.66 104.32 56.32 105 57 C105.99 56.01 105.99 56.01 107 55 C107.6875 56.8125 107.6875 56.8125 108 59 C106.5625 60.75 106.5625 60.75 105 62 C103.515 61.505 103.515 61.505 102 61 C102 64.96 102 68.92 102 73 C102.7425 72.21625 103.485 71.4325 104.25 70.625 C106.54433318 68.43495469 108.12158858 67.17268614 111 66 C111.33 66.99 111.66 67.98 112 69 C112.66 69 113.32 69 114 69 C114.89783116 74.4231898 115.21376749 79.69374578 115.25 85.1875 C115.270625 85.98091797 115.29125 86.77433594 115.3125 87.59179688 C115.35156979 93.40831167 115.35156979 93.40831167 113.484375 96.55078125 C112.99453125 97.02902344 112.5046875 97.50726563 112 98 C111.87625 97.29875 111.7525 96.5975 111.625 95.875 C110.22114453 89.16433591 110.22114453 89.16433591 106 84 C104.35444301 85.22809091 104.35444301 85.22809091 103 87 C103.22757731 89.16299211 103.22757731 89.16299211 104 91 C103.34 91 102.68 91 102 91 C101.74969023 93.41619823 101.74969023 93.41619823 102 96 C103.485 96.99 103.485 96.99 105 98 C104.6875 100.375 104.6875 100.375 104 103 C103.01 103.66 102.02 104.32 101 105 C101.33 105 101.66 105 102 105 C102.5775 105.33 103.155 105.66 103.75 106 C106.33498326 107.14888145 108.2018918 107.15545046 111 107 C111.495 105.02 111.495 105.02 112 103 C113.65 103.66 115.3 104.32 117 105 C117 105.99 117 106.98 117 108 C116.34 108.66 115.68 109.32 115 110 C115.37125 110.5775 115.7425 111.155 116.125 111.75 C117 114 117 114 116.25 116.125 C115 118 115 118 113 120 C113.66 120.66 114.32 121.32 115 122 C114.34 122 113.68 122 113 122 C113.33 123.65 113.66 125.3 114 127 C122.25 127 130.5 127 139 127 C139 127.33 139 127.66 139 128 C105.34 128 71.68 128 37 128 C37 110.84 37 93.68 37 76 C34.36 76 31.72 76 29 76 C28.34 74.02 27.68 72.04 27 70 C27.66 69.67 28.32 69.34 29 69 C28.67 68.01 28.34 67.02 28 66 C27.01 65.67 26.02 65.34 25 65 C25 64.34 25 63.68 25 63 C20.71 63 16.42 63 12 63 C12 62.34 12 61.68 12 61 C9.525 61.495 9.525 61.495 7 62 C7 61.01 7 60.02 7 59 C6.01 59 5.02 59 4 59 C3.67 59.66 3.34 60.32 3 61 C0.08482708 59.92598892 -1.77810176 59.22189824 -4 57 C-4.66 57.66 -5.32 58.32 -6 59 C-6.33 57.35 -6.66 55.7 -7 54 C-6.360625 53.5875 -5.72125 53.175 -5.0625 52.75 C-2.67393952 50.72334262 -2.51503817 50.00438933 -2 47 C-1.62875 46.071875 -1.2575 45.14375 -0.875 44.1875 C0.30817135 39.87737579 0.01456789 36.02913578 -2 32 C-1.34 31.67 -0.68 31.34 0 31 C-0.350625 29.948125 -0.70125 28.89625 -1.0625 27.8125 C-1.97260551 24.11140428 -1.89133155 22.56532621 -1 19 C-1.33 18.01 -1.66 17.02 -2 16 C-1.5625 13.3125 -1.5625 13.3125 -1 11 C-1.99 11.33 -2.98 11.66 -4 12 C-2.96650544 9.93301088 -1.931932 7.86764555 -0.875 5.8125 C0.07245818 4.18535061 0.07245818 4.18535061 0 3 C0 2.01 0 1.02 0 0 Z " fill="#3A1777" transform="translate(296,0)"/>
<path d="M0 0 C8.25 0 16.5 0 25 0 C25 1.98 25 3.96 25 6 C26.98 6 28.96 6 31 6 C31 10.29 31 14.58 31 19 C33.31 19 35.62 19 38 19 C38 23.29 38 27.58 38 32 C39.98 32 41.96 32 44 32 C44 38.27 44 44.54 44 51 C45.98 51 47.96 51 50 51 C50 55.29 50 59.58 50 64 C52.31 64 54.62 64 57 64 C57 70.27 57 76.54 57 83 C58.98 83 60.96 83 63 83 C63 84.98 63 86.96 63 89 C65.31 89 67.62 89 70 89 C70 95.27 70 101.54 70 108 C71.98 108 73.96 108 76 108 C76 114.6 76 121.2 76 128 C77.98 128 79.96 128 82 128 C82 131.96 82 135.92 82 140 C73.75 140 65.5 140 57 140 C57 135.71 57 131.42 57 127 C55.02 127 53.04 127 51 127 C51 123.04 51 119.08 51 115 C48.69 115 46.38 115 44 115 C44 110.71 44 106.42 44 102 C22.88 102 1.76 102 -20 102 C-20 106.29 -20 110.58 -20 115 C-21.98 115 -23.96 115 -26 115 C-26 119.29 -26 123.58 -26 128 C-28.31 128 -30.62 128 -33 128 C-33 131.96 -33 135.92 -33 140 C-41.25 140 -49.5 140 -58 140 C-58 136.04 -58 132.08 -58 128 C-56.02 128 -54.04 128 -52 128 C-52 121.4 -52 114.8 -52 108 C-50.02 108 -48.04 108 -46 108 C-46 101.73 -46 95.46 -46 89 C-43.69 89 -41.38 89 -39 89 C-39 87.02 -39 85.04 -39 83 C-37.02 83 -35.04 83 -33 83 C-33 76.73 -33 70.46 -33 64 C-30.69 64 -28.38 64 -26 64 C-26 59.71 -26 55.42 -26 51 C-24.02 51 -22.04 51 -20 51 C-20 44.73 -20 38.46 -20 32 C-17.69 32 -15.38 32 -13 32 C-13 27.71 -13 23.42 -13 19 C-11.02 19 -9.04 19 -7 19 C-7 14.71 -7 10.42 -7 6 C-4.69 6 -2.38 6 0 6 C0 4.02 0 2.04 0 0 Z " fill="#FAFAFB" transform="translate(199,218)"/>
<path d="M0 0 C46.53 0 93.06 0 141 0 C140.67 1.65 140.34 3.3 140 5 C139.67 4.01 139.34 3.02 139 2 C136.3534665 4.6465335 135.40058003 7.56221264 134 11 C134.99 10.34 135.98 9.68 137 9 C137.99 10.98 137.99 10.98 139 13 C138.01 14.32 137.02 15.64 136 17 C137.98 15.515 137.98 15.515 140 14 C140 15.33333333 140 16.66666667 140 18 C140.99 17.505 140.99 17.505 142 17 C142.99 16.505 142.99 16.505 144 16 C144 15.34 144 14.68 144 14 C145.98 14.495 145.98 14.495 148 15 C148 14.34 148 13.68 148 13 C148.66 13 149.32 13 150 13 C149.67 12.01 149.34 11.02 149 10 C152 10 152 10 155 11 C154.46375 11.86625 153.9275 12.7325 153.375 13.625 C151.63954497 16.94529009 151.63954497 16.94529009 152.8125 20.375 C153.4003125 21.674375 153.4003125 21.674375 154 23 C153.01 23 152.02 23 151 23 C147.75685563 24.27760233 147.02041177 24.96938234 145 28 C146.37485532 29.54166642 146.37485532 29.54166642 148 31 C148.66 31 149.32 31 150 31 C150.33 31.66 150.66 32.32 151 33 C151.66 33 152.32 33 153 33 C153 32.34 153 31.68 153 31 C153.66 31.33 154.32 31.66 155 32 C155 33.65 155 35.3 155 37 C155.33 36.67 155.66 36.34 156 36 C156.66 36 157.32 36 158 36 C158.66 36.66 159.32 37.32 160 38 C160.33 36.35 160.66 34.7 161 33 C161.99 33.33 162.98 33.66 164 34 C164 36.31 164 38.62 164 41 C162.88625 40.938125 161.7725 40.87625 160.625 40.8125 C158.830625 40.9053125 158.830625 40.9053125 157 41 C155.25165733 43.622514 154.48470246 44.99484478 154 48 C154.33 48.66 154.66 49.32 155 50 C152.05367478 51.47316261 149.07935087 51.1336477 145.85006714 51.12025452 C145.10515176 51.12110894 144.36023638 51.12196337 143.59274781 51.12284368 C141.08378046 51.12449757 138.57487921 51.1189786 136.06591797 51.11352539 C134.27254233 51.11324347 132.47916658 51.11340134 130.68579102 51.1139679 C125.80588975 51.11425569 120.92601288 51.10836182 116.04611731 51.10139394 C110.9505154 51.09515746 105.85491299 51.09455637 100.75930786 51.09336853 C91.10497636 51.09025609 81.45065614 51.08204386 71.79632962 51.07201904 C60.80737655 51.06085522 49.81842295 51.05534677 38.82946563 51.05032361 C16.21963749 51.03986118 -6.39018062 51.02226341 -29 51 C-29 50.34 -29 49.68 -29 49 C-29.66 48.34 -30.32 47.68 -31 47 C-31 44 -31 44 -29 41 C-28.34 41.66 -27.68 42.32 -27 43 C-26.5875 42.505 -26.175 42.01 -25.75 41.5 C-22.70536104 38.89030946 -16.96439238 40 -13 40 C-13 41 -13 42 -13 43 C-12.34 43.33 -11.68 43.66 -11 44 C-11.495 41.525 -11.495 41.525 -12 39 C-11.01 38.505 -11.01 38.505 -10 38 C-7.375 38.9375 -7.375 38.9375 -5 40 C-5 40.66 -5 41.32 -5 42 C-5.33 42.33 -5.66 42.66 -6 43 C-2.73146727 41.36573363 -1.40530199 38.23776625 0 35 C0.82105605 31.34863692 1 27.74129739 1 24 C1.495 22.515 1.495 22.515 2 21 C3.175625 21.0928125 3.175625 21.0928125 4.375 21.1875 C5.24125 21.125625 6.1075 21.06375 7 21 C7.66 20.01 8.32 19.02 9 18 C8.505 17.01 8.505 17.01 8 16 C8.99 15.01 9.98 14.02 11 13 C10.505 12.01 10.505 12.01 10 11 C10.66 11 11.32 11 12 11 C12 10.34 12 9.68 12 9 C11.01 9 10.02 9 9 9 C8.67 9.66 8.34 10.32 8 11 C5.05003516 8.89288226 2.35149951 6.77141014 0 4 C0 2.68 0 1.36 0 0 Z M155 15 C155.33 15.66 155.66 16.32 156 17 C155.01 17.33 154.02 17.66 153 18 C153 17.34 153 16.68 153 16 C153.66 15.67 154.32 15.34 155 15 Z " fill="#2F1972" transform="translate(115,461)"/>
<path d="M0 0 C46.86 0 93.72 0 142 0 C142 0.33 142 0.66 142 1 C138.04 1 134.08 1 130 1 C130 1.66 130 2.32 130 3 C131.98 3.495 131.98 3.495 134 4 C134 4.99 134 5.98 134 7 C134.33 7.66 134.66 8.32 135 9 C134.71887936 11.00800456 134.38932033 13.01014051 134 15 C132.35 15.33 130.7 15.66 129 16 C129.89767656 19.1315587 129.89767656 19.1315587 132 22 C132 22.66 132 23.32 132 24 C131.34 24 130.68 24 130 24 C130.825 24.680625 131.65 25.36125 132.5 26.0625 C135 29 135 29 135.375 32.625 C134.95816166 36.37654506 134.69078066 38.30921934 132 41 C131.34 41.70125 130.68 42.4025 130 43.125 C128 45 128 45 126 45 C126.66 45.66 127.32 46.32 128 47 C128.99 46.34 129.98 45.68 131 45 C131.33 45.66 131.66 46.32 132 47 C130.69390869 48.97161865 130.69390869 48.97161865 128 51 C124.30763666 51.61307189 120.63214797 51.50428253 116.89746094 51.45410156 C115.76546265 51.45468567 114.63346436 51.45526978 113.46716309 51.45587158 C109.72258932 51.45308313 105.97880985 51.42195352 102.234375 51.390625 C99.63934769 51.38316536 97.04431474 51.37747112 94.44927979 51.37347412 C88.31521684 51.359758 82.18148208 51.3282275 76.04754281 51.28807616 C69.06334278 51.2433525 62.07912905 51.22136998 55.09482145 51.20129442 C40.72972772 51.15949435 26.364874 51.08914607 12 51 C12 47.14681652 12.185291 43.76802913 13 40 C15.62113708 40 17.50935112 40.31292445 20 41 C20.33 40.34 20.66 39.68 21 39 C21.495 39.495 21.495 39.495 22 40 C22 38.02 22 36.04 22 34 C21.566875 34.928125 21.566875 34.928125 21.125 35.875 C20 38 20 38 18 40 C17.67 38.68 17.34 37.36 17 36 C16.34 36 15.68 36 15 36 C15 36.66 15 37.32 15 38 C14.34 37.67 13.68 37.34 13 37 C13 35.35 13 33.7 13 32 C12.67 32.33 12.34 32.66 12 33 C10.515 33.495 10.515 33.495 9 34 C6.5 31.6875 6.5 31.6875 4 29 C4 26 4 26 5.75 23.75 C8 22 8 22 10.25 22.25 C10.8275 22.4975 11.405 22.745 12 23 C11.608125 21.948125 11.21625 20.89625 10.8125 19.8125 C10 16 10 16 11.375 13.0625 C11.91125 12.381875 12.4475 11.70125 13 11 C11.68 10.67 10.36 10.34 9 10 C8.67 11.65 8.34 13.3 8 15 C5 15 5 15 3 14 C2.731875 14.804375 2.46375 15.60875 2.1875 16.4375 C1.795625 17.283125 1.40375 18.12875 1 19 C0.01 19.33 -0.98 19.66 -2 20 C-2 19.01 -2 18.02 -2 17 C-2.33 17 -2.66 17 -3 17 C-3.99 17 -4.98 17 -6 17 C-5.484375 16.401875 -4.96875 15.80375 -4.4375 15.1875 C-3.963125 14.465625 -3.48875 13.74375 -3 13 C-3.33 12.01 -3.66 11.02 -4 10 C-4.99 10.66 -5.98 11.32 -7 12 C-7 8.88772805 -6.54372951 6.05847848 -6 3 C-5.195625 2.87625 -4.39125 2.7525 -3.5625 2.625 C-2.716875 2.41875 -1.87125 2.2125 -1 2 C-0.67 1.34 -0.34 0.68 0 0 Z M14 15 C13.01 15.495 13.01 15.495 12 16 C12.33 16.66 12.66 17.32 13 18 C13.66 17.67 14.32 17.34 15 17 C14.67 16.34 14.34 15.68 14 15 Z M14 18 C15 20 15 20 15 20 Z " fill="#3B1678" transform="translate(256,461)"/>
<path d="M0 0 C33.66 0 67.32 0 102 0 C102 8.25 102 16.5 102 25 C89.46 25 76.92 25 64 25 C64 62.95 64 100.9 64 140 C55.42 140 46.84 140 38 140 C38 102.05 38 64.1 38 25 C25.46 25 12.92 25 0 25 C0 16.75 0 8.5 0 0 Z " fill="#FBFBFB" transform="translate(269,218)"/>
<path d="M0 0 C25.08 0 50.16 0 76 0 C76 3.96 76 7.92 76 12 C80.29 12 84.58 12 89 12 C89 20.58 89 29.16 89 38 C55.34 38 21.68 38 -13 38 C-13 29.42 -13 20.84 -13 12 C-8.71 12 -4.42 12 0 12 C0 8.04 0 4.08 0 0 Z " fill="#321974" transform="translate(218,90)"/>
<path d="M0 0 C4.29 0 8.58 0 13 0 C13 4.29 13 8.58 13 13 C14.98 13 16.96 13 19 13 C19 17.29 19 21.58 19 26 C20.98 26 22.96 26 25 26 C25 29.96 25 33.92 25 38 C12.46 38 -0.08 38 -13 38 C-13 34.04 -13 30.08 -13 26 C-10.69 26 -8.38 26 -6 26 C-6 21.71 -6 17.42 -6 13 C-4.02 13 -2.04 13 0 13 C0 8.71 0 4.42 0 0 Z " fill="#0F0A24" transform="translate(205,256)"/>
<path d="M0 0 C0.66 0 1.32 0 2 0 C2.391875 0.9075 2.78375 1.815 3.1875 2.75 C5.64004214 7.14766177 8.22707358 9.40902453 13 11 C13 11.66 13 12.32 13 13 C12.0925 13.391875 11.185 13.78375 10.25 14.1875 C5.85233823 16.64004214 3.59097547 19.22707358 2 24 C1.34 24 0.68 24 0 24 C-0.391875 23.0925 -0.78375 22.185 -1.1875 21.25 C-3.64004214 16.85233823 -6.22707358 14.59097547 -11 13 C-11 12.34 -11 11.68 -11 11 C-10.0925 10.608125 -9.185 10.21625 -8.25 9.8125 C-3.85233823 7.35995786 -1.59097547 4.77292642 0 0 Z " fill="#9B88AF" transform="translate(483,472)"/>
<path d="M0 0 C9.9 0 19.8 0 30 0 C30 0.33 30 0.66 30 1 C29.31292969 1.04898437 28.62585938 1.09796875 27.91796875 1.1484375 C26.56638672 1.26058594 26.56638672 1.26058594 25.1875 1.375 C24.29417969 1.44460938 23.40085938 1.51421875 22.48046875 1.5859375 C19.75601501 1.86645036 19.75601501 1.86645036 17 4 C16.67 3.34 16.34 2.68 16 2 C14.77023438 2.03480469 14.77023438 2.03480469 13.515625 2.0703125 C11.89914063 2.09738281 11.89914063 2.09738281 10.25 2.125 C8.64898437 2.15980469 8.64898437 2.15980469 7.015625 2.1953125 C4 2 4 2 0 0 Z " fill="#251B6C" transform="translate(160,461)"/>
</svg>
